<?xml version="1.0" standalone="no"?>
<!DOCTYPE svg PUBLIC "-//W3C//DTD SVG 20010904//EN"
 "http://www.w3.org/TR/2001/REC-SVG-20010904/DTD/svg10.dtd">
<svg version="1.0" xmlns="http://www.w3.org/2000/svg"
 width="640.000000pt" height="640.000000pt" viewBox="0 0 640.000000 640.000000"
 preserveAspectRatio="xMidYMid meet">
<metadata>
Created by potrace 1.11, written by Peter Selinger 2001-2013
</metadata>
<g transform="translate(0.000000,640.000000) scale(0.100000,-0.100000)"
fill="#000000" stroke="none">
<path d="M2555 6195 c-5 -2 -26 -6 -46 -9 -21 -4 -49 -16 -63 -27 l-27 -21 40
-34 c58 -50 75 -109 76 -264 l0 -125 -72 -100 c-79 -109 -161 -266 -189 -360
-22 -72 -25 -240 -6 -302 7 -23 28 -64 46 -92 l34 -50 -52 -12 c-85 -20 -294
-115 -353 -161 -201 -155 -379 -389 -449 -589 -35 -101 -43 -255 -20 -361 17
-75 68 -195 107 -250 l21 -29 31 48 c46 69 133 155 206 201 160 104 330 125
509 62 199 -70 376 -274 455 -525 38 -120 50 -227 44 -383 -8 -229 -71 -413
-196 -579 -148 -195 -345 -287 -566 -262 -252 27 -482 248 -578 554 -40 128
-50 216 -44 387 6 172 25 262 83 387 19 41 34 75 34 77 0 9 -41 3 -116 -17
-340 -89 -567 -310 -656 -640 -33 -123 -33 -323 0 -429 32 -102 83 -196 142
-262 l49 -56 -31 -6 c-17 -3 -56 -6 -88 -6 -81 0 -239 -43 -334 -90 -257 -128
-423 -360 -496 -695 -53 -248 1 -458 163 -631 188 -201 453 -301 872 -326 163
-10 200 -9 396 11 119 12 294 33 390 47 204 31 181 30 429 16 107 -6 341 -16
520 -22 179 -6 381 -15 450 -20 422 -31 1384 -53 1765 -40 725 24 992 107
1160 360 66 99 131 243 155 340 27 115 27 288 1 392 -55 215 -218 418 -466
583 -69 46 -283 169 -307 177 -5 2 0 20 11 41 59 115 67 422 16 627 -86 352
-307 554 -638 585 -42 4 -77 9 -77 11 0 2 11 42 25 89 37 129 51 280 36 387
-12 79 -19 97 -69 178 -104 167 -224 284 -357 350 -104 52 -179 70 -286 70
l-86 0 20 68 c29 98 28 298 -1 406 -92 338 -398 687 -883 1009 -153 101 -327
203 -413 243 -86 39 -285 82 -321 69z m1840 -2456 c111 -27 222 -96 312 -193
177 -191 265 -452 250 -746 -20 -395 -244 -726 -550 -815 -75 -22 -219 -22
-294 0 -405 117 -642 645 -517 1147 84 335 303 569 576 617 58 11 160 6 223
-10z m-145 -2088 c19 -7 53 -28 75 -47 l40 -33 -24 -46 c-54 -103 -284 -287
-479 -385 -220 -110 -443 -163 -682 -163 -247 0 -470 55 -699 173 -204 106
-441 305 -471 396 -11 32 -10 35 21 61 43 37 62 44 139 53 36 4 510 7 1055 6
782 -2 997 -5 1025 -15z"/>
<path d="M4162 3363 c-23 -8 -66 -36 -95 -63 -111 -102 -169 -250 -169 -435
-2 -283 143 -504 341 -522 91 -8 152 17 229 93 105 105 156 243 156 424 0 183
-57 335 -163 433 -90 83 -193 108 -299 70z"/>
<path d="M2032 3349 c-278 -139 -329 -672 -87 -914 191 -190 450 -84 547 225
19 63 23 95 22 205 0 113 -4 141 -27 212 -83 248 -274 363 -455 272z"/>
</g>
</svg>
