<?xml version="1.0" standalone="no"?>
<!DOCTYPE svg PUBLIC "-//W3C//DTD SVG 20010904//EN"
 "http://www.w3.org/TR/2001/REC-SVG-20010904/DTD/svg10.dtd">
<svg version="1.0" xmlns="http://www.w3.org/2000/svg"
 width="166.000000pt" height="166.000000pt" viewBox="0 0 166.000000 166.000000"
 preserveAspectRatio="xMidYMid meet">
<metadata>
Created by potrace 1.11, written by Peter Selinger 2001-2013
</metadata>
<g transform="translate(0.000000,166.000000) scale(0.100000,-0.100000)"
fill="#000000" stroke="none">
<path d="M1225 1550 c-49 -33 -97 -66 -106 -75 -9 -8 -20 -15 -26 -15 -5 0
-20 -11 -33 -25 -13 -14 -38 -34 -56 -44 l-32 -19 -73 56 c-91 68 -167 104
-211 100 l-33 -3 3 -65 c3 -62 1 -68 -37 -125 -45 -66 -48 -80 -27 -129 l14
-33 -40 -14 c-50 -16 -127 -83 -144 -126 -16 -37 -18 -133 -5 -179 9 -30 7
-32 -28 -43 -126 -37 -190 -162 -146 -286 8 -21 13 -40 12 -41 -1 -1 -22 -10
-47 -21 -101 -44 -149 -114 -150 -216 0 -94 31 -151 105 -190 34 -19 56 -22
145 -21 58 1 145 9 194 18 78 15 107 16 248 5 218 -16 594 -7 668 16 72 22
126 60 159 110 34 53 37 152 5 205 -23 40 -76 79 -117 87 -25 5 -28 9 -20 32
4 14 8 55 8 91 -1 53 -6 74 -29 113 -29 49 -73 89 -116 105 -22 8 -24 14 -21
60 2 35 -4 62 -18 90 -31 61 -69 85 -163 106 -25 6 -26 8 -17 38 5 17 6 49 3
69 -7 40 8 67 67 127 15 15 30 37 34 50 3 12 11 22 16 22 6 0 15 12 22 28 7
15 36 62 65 106 77 116 61 124 -73 36z"/>
</g>
</svg>
